<?xml version="1.0" encoding="UTF-8"?>
<svg width="20px" height="16px" viewBox="0 0 20 16" version="1.1" xmlns="http://www.w3.org/2000/svg" xmlns:xlink="http://www.w3.org/1999/xlink">
    <!-- Generator: Sketch 47.1 (45422) - http://www.bohemiancoding.com/sketch -->
    <title>medium</title>
    <desc>Created with Sketch.</desc>
    <defs></defs>
    <g id="Page-1" stroke="none" stroke-width="1" fill="none" fill-rule="evenodd">
        <g id="medium" fill-rule="nonzero" fill="#FFFFFF">
            <path d="M2.37,3.3 C2.4,3.05 2.3,2.81 2.12,2.65 L0.25,0.4 L0.25,0.06 L6.05,0.06 L10.53,9.89 L14.47,0.06 L20,0.06 L20,0.4 L18.4,1.93 C18.27,2.03 18.2,2.21 18.23,2.38 L18.23,13.62 C18.2,13.79 18.27,13.97 18.4,14.07 L19.96,15.6 L19.96,15.94 L12.12,15.94 L12.12,15.6 L13.73,14.03 C13.89,13.88 13.89,13.83 13.89,13.59 L13.89,4.5 L9.4,15.9 L8.8,15.9 L3.57,4.5 L3.57,12.14 C3.5,12.46 3.63,12.78 3.86,13 L5.96,15.57 L5.96,15.9 L0,15.9 L0,15.57 L2.1,13 C2.33,12.78 2.43,12.46 2.37,12.14 L2.37,3.3 Z" id="Shape"></path>
        </g>
    </g>
</svg>