<?xml version="1.0" encoding="UTF-8"?>
<svg width="20px" height="18px" viewBox="0 0 20 18" version="1.1" xmlns="http://www.w3.org/2000/svg" xmlns:xlink="http://www.w3.org/1999/xlink">
    <!-- Generator: Sketch 47.1 (45422) - http://www.bohemiancoding.com/sketch -->
    <title>Shape</title>
    <desc>Created with Sketch.</desc>
    <defs></defs>
    <g id="Page-1" stroke="none" stroke-width="1" fill="none" fill-rule="evenodd">
        <g id="reddit" transform="translate(0.000000, -1.000000)" fill-rule="nonzero" fill="#FFFFFF">
            <path d="M20,9.5 C20,8.1 18.9,7 17.5,7 C16.9,7 16.3,7.2 15.9,7.6 C14.4,6.7 12.6,6.1 10.5,6 L11.6,2 L15,3 C15,4.1045695 15.8954305,5 17,5 C18.1045695,5 19,4.1045695 19,3 C19,1.8954305 18.1045695,1 17,1 C16.3,1 15.6,1.4 15.3,2 L11.3,1 C11,0.9 10.8,1.1 10.7,1.4 L9.5,6 C7.5,6.1 5.6,6.7 4.1,7.6 C3.7,7.2 3.1,7 2.5,7 C1.1,7 0,8.1 0,9.5 C0,10.4 0.4,11.1 1.1,11.6 L1,12.5 C1,16.1 5,19 10,19 C15,19 19,16.1 19,12.5 L18.9,11.6 C19.6,11.1 20,10.4 20,9.5 L20,9.5 Z M7,9.8 C7.7,9.8 8.2,10.4 8.2,11 C8.2,11.6 7.7,12.2 7,12.2 C6.3,12.2 5.8,11.7 5.8,11 C5.8,10.3 6.3,9.8 7,9.8 L7,9.8 Z M13.8,15.2 C12,16.3 8,16.3 6.2,15.2 C6,15 5.9,14.7 6.1,14.5 C6.3,14.3 6.6,14.2 6.8,14.4 C8,15.3 12,15.3 13.2,14.4 C13.4,14.2 13.7,14.3 13.9,14.5 C14.1,14.7 14,15 13.8,15.2 L13.8,15.2 Z M13,12.2 C12.3,12.2 11.8,11.6 11.8,11 C11.8,10.3 12.4,9.8 13,9.8 C13.7,9.8 14.2,10.4 14.2,11 C14.2,11.7 13.7,12.2 13,12.2 Z" id="Shape"></path>
        </g>
    </g>
</svg>