<?xml version="1.0" encoding="UTF-8"?>
<svg width="669px" height="165px" viewBox="0 0 669 165" version="1.1" xmlns="http://www.w3.org/2000/svg" xmlns:xlink="http://www.w3.org/1999/xlink">
    <!-- Generator: Sketch 47.1 (45422) - http://www.bohemiancoding.com/sketch -->
    <title>olympia_logo</title>
    <desc>Created with Sketch.</desc>
    <defs></defs>
    <g id="Welcome" stroke="none" stroke-width="1" fill="none" fill-rule="evenodd">
        <g id="olympia_logo" transform="translate(0.210657, -0.260608)" fill-rule="nonzero" fill="#FFFFFF">
            <path d="M247.641275,27.7194472 C253.088214,30.7151294 257.371208,34.8238001 260.49361,40.0474706 C263.615342,45.2724822 265.177548,51.0707498 265.177548,57.4402621 C265.177548,63.8124563 263.615342,69.624804 260.49361,74.8813278 C257.371208,80.1371812 253.088214,84.2947965 247.641275,87.3521625 C242.193666,90.4108693 236.15738,91.9388818 229.531076,91.9388818 C222.904771,91.9388818 216.868485,90.4108693 211.421546,87.3521625 C205.973937,84.2941261 201.688261,80.1371812 198.5672,74.8813278 C195.444798,69.624804 193.885944,63.8124563 193.885944,57.4402621 C193.885944,51.0707498 195.444798,45.2724822 198.5672,40.0474706 C201.688261,34.8238001 205.973937,30.7151294 211.421546,27.7194472 C216.868485,24.7257764 222.904771,23.2279353 229.531076,23.2279353 C236.15738,23.2286057 242.193666,24.7257764 247.641275,27.7194472 M218.349564,37.7068425 C214.844992,39.7129036 212.073918,42.4531349 210.036345,45.9248543 C207.99609,49.3979147 206.976968,53.235043 206.976968,57.4402621 C206.976968,61.6461517 208.012852,65.5007123 210.082608,69.0046146 C212.153035,72.5078464 214.924108,75.2789195 218.397839,77.3178339 C221.868887,79.3580893 225.643662,80.3758703 229.722831,80.3758703 C233.735624,80.3758703 237.463465,79.3580893 240.903672,77.3178339 C244.343879,75.2789195 247.066678,72.5078464 249.07341,69.0046146 C251.080812,65.5007123 252.083843,61.6461517 252.083843,57.4402621 C252.083843,53.235043 251.080812,49.3979147 249.07341,45.9248543 C247.066678,42.4531349 244.343879,39.7129036 240.903672,37.7068425 C237.463465,35.6987699 233.735624,34.6957393 229.722831,34.6957393 C225.643662,34.6957393 221.853467,35.6987699 218.349564,37.7068425" id="Shape"></path>
            <polygon id="Shape" points="283.667237 24.0881547 296.472639 24.0881547 296.472639 79.4204434 325.333234 79.4204434 325.333234 90.983455 283.667237 90.983455"></polygon>
            <polygon id="Shape" points="387.614996 24.0881547 363.246583 69.0991516 363.246583 90.983455 350.440511 90.983455 350.440511 69.5778707 325.498171 24.0881547 338.494658 24.0881547 356.747669 55.5300789 374.714387 24.0881547"></polygon>
            <polygon id="Shape" points="401.343642 24.0881547 415.96469 24.0881547 438.135957 67.1882979 460.115467 24.0881547 474.737856 24.0881547 474.737856 90.983455 462.982418 90.983455 462.982418 43.0109701 442.148749 84.1037112 433.930737 84.1037112 413.00119 43.0109701 413.00119 90.983455 401.343642 90.983455"></polygon>
            <path d="M544.89837,30.1083495 C549.517272,34.1224832 551.826388,39.7933606 551.826388,47.1196407 C551.826388,54.7643965 549.517272,60.7061458 544.89837,64.9422067 C540.278127,69.1789381 533.765803,71.2969686 525.356035,71.2969686 L510.733647,71.2969686 L510.733647,90.983455 L497.928245,90.983455 L497.928245,24.0874842 L525.355365,24.0874842 C533.765803,24.0874842 540.278127,26.0948863 544.89837,30.1083495 M535.820138,56.867006 C538.399456,54.7643965 539.68945,51.6433354 539.68945,47.5018115 C539.68945,43.4253236 538.398785,40.3679577 535.820138,38.3277023 C533.238139,36.2887879 529.52706,35.2696659 524.686231,35.2696659 L510.733647,35.2696659 L510.733647,60.0202499 L524.686231,60.0202499 C529.52706,60.0209203 533.238139,58.970286 535.820138,56.867006" id="Shape"></path>
            <rect id="Rectangle-path" x="569.056254" y="24.0881547" width="12.8054017" height="66.8953003"></rect>
            <path d="M654.702057,90.983455 L648.77707,76.8404557 L616.094097,76.8404557 L610.167768,90.983455 L596.884318,90.983455 L626.223633,24.0881547 L639.507083,24.0881547 L668.463556,90.983455 L654.702057,90.983455 Z M620.680816,65.8513708 L644.18968,65.8513708 L632.53012,37.7551167 L620.680816,65.8513708 Z" id="Shape"></path>
            <g id="Group" transform="translate(198.000000, 112.000000)" opacity="0.5">
                <path d="M19.2399282,2.82219292 C21.0770297,4.3931158 21.9955804,6.61305847 21.9955804,9.48067996 C21.9955804,12.4743508 21.0770297,14.799558 19.2399282,16.4583131 C17.4028268,18.1157272 14.8107705,18.9457753 11.4664413,18.9457753 L5.65074129,18.9457753 L5.65074129,26.6522147 L0.557142861,26.6522147 L0.557142861,0.464132413 L11.4664413,0.464132413 C14.8107705,0.464132413 17.4028268,1.24992909 19.2399282,2.82219292 M15.62875,13.2970236 C16.6545767,12.4736803 17.1681605,11.2520749 17.1681605,9.63019588 C17.1681605,8.03379495 16.6545767,6.83766758 15.62875,6.03913188 C14.6029232,5.24193713 13.1265373,4.84166357 11.2009332,4.84166357 L5.65074129,4.84166357 L5.65074129,14.531368 L11.2009332,14.531368 C13.1265373,14.531368 14.6029232,14.1196964 15.62875,13.2970236" id="Shape"></path>
                <path d="M49.1089182,1.88620985 C51.2745523,3.05820012 52.9788997,4.66734007 54.2206194,6.71094781 C55.4623391,8.75723746 56.0825284,11.0274657 56.0825284,13.5202917 C56.0825284,16.0151291 55.4623391,18.2900507 54.2206194,20.3477385 C52.9788997,22.4054262 51.2745523,24.0333394 49.1089182,25.2294668 C46.9426135,26.4269351 44.5403016,27.0263397 41.905335,27.0263397 C39.2696978,27.0263397 36.8693974,26.4269351 34.7024222,25.2294668 C32.5354471,24.0333394 30.8310997,22.4054262 29.5900505,20.3477385 C28.3483308,18.2907212 27.727471,16.0151291 27.727471,13.5202917 C27.727471,11.0267953 28.3483308,8.75723746 29.5900505,6.71094781 C30.8310997,4.66734007 32.5354471,3.05820012 34.7024222,1.88620985 C36.8693974,0.713549106 39.2696978,0.127553972 41.905335,0.127553972 C44.5403016,0.127553972 46.9426135,0.713549106 49.1089182,1.88620985 M37.4580744,5.79507899 C36.0641569,6.58087567 34.9618961,7.65296516 34.1512918,9.0133589 C33.3400171,10.3717412 32.9350502,11.8749461 32.9350502,13.5209622 C32.9350502,15.1676488 33.3460513,16.6768879 34.1700651,18.0473388 C34.9940789,19.4191306 36.0963397,20.5039591 37.4768477,21.3018244 C38.8586966,22.0996896 40.3598901,22.4986222 41.9817691,22.4986222 C43.57817,22.4986222 45.0605902,22.0996896 46.4290297,21.3018244 C47.7967986,20.5039591 48.8802862,19.4184601 49.6788219,18.0473388 C50.4766871,16.6768879 50.8762902,15.1676488 50.8762902,13.5209622 C50.8762902,11.8749461 50.4766871,10.3724117 49.6788219,9.0133589 C48.8802862,7.65363564 47.7967986,6.58087567 46.4290297,5.79507899 C45.0605902,5.00928231 43.57817,4.61638397 41.9817691,4.61638397 C40.3598901,4.61705445 38.8513214,5.00995279 37.4580744,5.79507899" id="Shape"></path>
                <polygon id="Shape" points="95.2939168 0.464132413 100.57726 0.464132413 91.5680873 26.6522147 86.2847444 26.6522147 80.2042068 6.78671149 74.0076771 26.6522147 68.8007684 26.6522147 59.8298131 0.464132413 65.3035709 0.464132413 71.5751938 21.2274016 77.8085997 0.464132413 82.825764 0.464132413 89.0980575 21.3018244"></polygon>
                <polygon id="Shape" points="106.969568 0.464132413 126.469662 0.464132413 126.469662 4.84166357 112.063167 4.84166357 112.063167 11.3137586 124.987242 11.3137586 124.987242 15.6906192 112.063167 15.6906192 112.063167 22.275354 126.925585 22.275354 126.925585 26.6522147 106.969568 26.6522147"></polygon>
                <path d="M151.867255,26.6522147 L147.267796,18.9075582 C147.064642,18.9330362 146.748849,18.9457753 146.318404,18.9457753 L140.312289,18.9457753 L140.312289,26.6522147 L135.21869,26.6522147 L135.21869,0.464802888 L146.318404,0.464802888 C149.764645,0.464802888 152.423749,1.24992909 154.299738,2.82219292 C156.174386,4.3931158 157.112381,6.61305847 157.112381,9.48067996 C157.112381,11.5262991 156.661821,13.2715455 155.762714,14.7184305 C154.862937,16.165986 153.551488,17.250144 151.829038,17.9735865 L157.682284,26.6522147 L151.867255,26.6522147 L151.867255,26.6522147 Z M140.312289,14.531368 L146.318404,14.531368 C148.243337,14.531368 149.713019,14.1203668 150.727447,13.2970236 C151.739864,12.4736803 152.247414,11.2520749 152.247414,9.63019588 C152.247414,8.03446543 151.739864,6.83766758 150.727447,6.03913188 C149.713019,5.2426076 148.243337,4.84166357 146.318404,4.84166357 L140.312289,4.84166357 L140.312289,14.531368 Z" id="Shape"></path>
                <polygon id="Shape" points="165.606628 0.464132413 185.106722 0.464132413 185.106722 4.84166357 170.700226 4.84166357 170.700226 11.3137586 183.624302 11.3137586 183.624302 15.6906192 170.700226 15.6906192 170.700226 22.275354 185.562645 22.275354 185.562645 26.6522147 165.606628 26.6522147"></polygon>
                <path d="M212.062499,2.13026274 C214.166449,3.23922836 215.813136,4.79204842 217.00457,6.78671149 C218.194663,8.78338598 218.790715,11.0402048 218.790715,13.5591793 C218.790715,16.0781538 218.188628,18.3282678 216.985126,20.3115328 C215.780953,22.2941273 214.116163,23.8456064 211.986735,24.9679816 C209.858647,26.0910271 207.438903,26.6522147 204.726832,26.6522147 L193.85575,26.6522147 L193.85575,0.464132413 L204.917247,0.464132413 C207.577021,0.464132413 209.959219,1.0192857 212.062499,2.13026274 M209.420827,21.1342056 C210.726242,20.3980241 211.746034,19.3755497 212.480875,18.0661121 C213.215045,16.756004 213.583136,15.2662086 213.583136,13.5953849 C213.583136,11.9245613 213.202977,10.4220268 212.443328,9.08711115 C211.68301,7.75353641 210.637739,6.71832304 209.307517,5.98281198 C207.976624,5.24663045 206.487499,4.87853969 204.840813,4.87853969 L198.949349,4.87853969 L198.949349,22.2384779 L205.030557,22.2384779 C206.652436,22.2384779 208.115412,21.8697167 209.420827,21.1342056" id="Shape"></path>
                <path d="M258.683306,2.22278829 C260.317924,3.39477856 261.133892,4.99117949 261.133892,7.0113206 C261.133892,8.45820561 260.72155,9.69925481 259.898877,10.7337977 C259.074863,11.7690111 257.941761,12.4616117 256.497557,12.8102587 C258.270964,13.1347686 259.656836,13.8830187 260.658525,15.055009 C261.659544,16.2283402 262.16106,17.6866233 262.16106,19.4318696 C262.16106,21.6766199 261.279385,23.44131 259.519388,24.7259401 C257.756709,26.0105701 255.356409,26.6528852 252.316475,26.6528852 L240.152718,26.6528852 L240.152718,0.464132413 L251.973863,0.464132413 C254.811313,0.464132413 257.047347,1.05079802 258.683306,2.22278829 M254.805279,10.3033528 C255.552858,9.73009665 255.927654,8.93223143 255.927654,7.9090866 C255.927654,6.91209031 255.552858,6.13836218 254.805279,5.59058412 C254.058369,5.04146511 253.025838,4.77930939 251.708355,4.80411697 L245.246317,4.80411697 L245.246317,11.1635722 L251.708355,11.1635722 C253.025168,11.1635722 254.057699,10.8779498 254.805279,10.3033528 M255.507936,21.4144642 C256.420453,20.7909224 256.876376,19.9172935 256.876376,18.7962594 C256.876376,17.7234994 256.420453,16.8827238 255.507936,16.2699096 C254.596761,15.6591069 253.328222,15.3667798 251.707684,15.3909169 L245.245646,15.3909169 L245.245646,22.3115597 L251.707684,22.3115597 C253.328222,22.3377082 254.596761,22.0386764 255.507936,21.4144642" id="Shape"></path>
                <polygon id="Shape" points="290.721953 0.464132413 281.028896 18.0848854 281.028896 26.6522147 275.935968 26.6522147 275.935968 18.2712774 266.014279 0.464132413 271.184982 0.464132413 278.444215 12.7727121 285.590808 0.464132413"></polygon>
                <path d="M328.959141,13.6329315 L333.406402,13.6329315 L333.406402,23.5841212 C332.012484,24.607266 330.365798,25.4359731 328.464331,26.0729243 C326.564204,26.7078641 324.702295,27.0270102 322.876592,27.0270102 C320.266433,27.0270102 317.89094,26.4276056 315.749443,25.2301373 C313.607946,24.0340099 311.917008,22.4060967 310.675959,20.3484089 C309.434239,18.2913917 308.81405,16.0157996 308.81405,13.5209622 C308.81405,11.0274657 309.446308,8.76327173 310.714176,6.73106206 C311.982044,4.69818192 313.711199,3.08971244 315.902982,1.90498315 C318.094094,0.720253855 320.521213,0.128224447 323.180988,0.128224447 C325.082455,0.128224447 326.957103,0.464802888 328.806273,1.13863024 C330.656784,1.81178713 332.252514,2.73503117 333.596146,3.90702144 L330.706399,7.61005476 C329.693311,6.66267361 328.521991,5.92649209 327.192439,5.40285112 C325.861547,4.87921016 324.52462,4.61705445 323.181658,4.61705445 C321.508823,4.61705445 319.969413,5.00995279 318.562756,5.79574946 C317.15677,6.58154614 316.048475,7.66101086 315.237871,9.0321322 C314.425925,10.403924 314.021629,11.8997537 314.021629,13.5209622 C314.021629,15.1669783 314.43263,16.6762175 315.256644,18.0473388 C316.080658,19.4191306 317.188953,20.5039591 318.5822,21.3018244 C319.976117,22.0996896 321.521562,22.4986222 323.219205,22.4986222 C324.132392,22.4986222 325.087819,22.355811 326.089508,22.0681773 C327.090527,21.7818844 328.047295,21.3762471 328.959812,20.8526061 L328.959812,13.6329315 L328.959141,13.6329315 Z" id="Shape"></path>
                <polygon id="Shape" points="360.886489 0.464132413 365.82789 0.464132413 365.82789 26.6522147 361.00114 26.6522147 347.316746 8.62046056 347.316746 26.6522147 342.337128 26.6522147 342.337128 0.464132413 347.165219 0.464132413 360.886489 18.5341036"></polygon>
                <path d="M394.942595,1.88620985 C397.10823,3.05820012 398.812577,4.66734007 400.054297,6.71094781 C401.296016,8.75723746 401.916206,11.0274657 401.916206,13.5202917 C401.916206,16.0151291 401.295346,18.2900507 400.054297,20.3477385 C398.812577,22.4054262 397.10823,24.0333394 394.942595,25.2294668 C392.776961,26.4269351 390.374649,27.0263397 387.739012,27.0263397 C385.103375,27.0263397 382.703075,26.4269351 380.536099,25.2294668 C378.370465,24.0333394 376.665447,22.4054262 375.423728,20.3477385 C374.182008,18.2907212 373.561819,16.0151291 373.561819,13.5202917 C373.561819,11.0267953 374.182679,8.75723746 375.423728,6.71094781 C376.665447,4.66734007 378.370465,3.05820012 380.536099,1.88620985 C382.703075,0.713549106 385.103375,0.127553972 387.739012,0.127553972 C390.374649,0.127553972 392.776961,0.713549106 394.942595,1.88620985 M383.291752,5.79507899 C381.897834,6.58087567 380.795573,7.65296516 379.984969,9.0133589 C379.173694,10.3717412 378.768727,11.8749461 378.768727,13.5209622 C378.768727,15.1676488 379.179729,16.6768879 380.004413,18.0473388 C380.828427,19.4191306 381.930017,20.5039591 383.311195,21.3018244 C384.693044,22.0996896 386.194238,22.4986222 387.816117,22.4986222 C389.412518,22.4986222 390.894938,22.0996896 392.263377,21.3018244 C393.631817,20.5039591 394.715304,19.4184601 395.51384,18.0473388 C396.311035,16.6768879 396.710638,15.1676488 396.710638,13.5209622 C396.710638,11.8749461 396.311035,10.3724117 395.51384,9.0133589 C394.715975,7.65363564 393.631817,6.58087567 392.263377,5.79507899 C390.894938,5.00928231 389.412518,4.61638397 387.816117,4.61638397 C386.193567,4.61705445 384.684999,5.00995279 383.291752,5.79507899" id="Shape"></path>
                <path d="M422.005648,5.29155228 C420.573513,4.84166357 419.31235,4.61705445 418.223498,4.61705445 C417.007257,4.61705445 416.043784,4.84166357 415.334421,5.29155228 C414.624388,5.74010004 414.269707,6.36431225 414.269707,7.161507 C414.269707,7.88494951 414.517112,8.49038841 415.011253,8.9758123 C415.504722,9.46257714 416.125582,9.86083928 416.873162,10.1726101 C417.620071,10.4850515 418.641204,10.8283347 419.933209,11.2011188 C421.732094,11.7247597 423.207809,12.2484007 424.361026,12.7727121 C425.514243,13.2970236 426.495819,14.0707517 427.307093,15.0925556 C428.117697,16.1150299 428.522664,17.4620141 428.522664,19.1321673 C428.522664,20.7285682 428.085515,22.1198038 427.211215,23.3045331 C426.336245,24.4885919 425.133413,25.3923922 423.600037,26.0159339 C422.066661,26.6401462 420.313369,26.951917 418.336138,26.951917 C416.256995,26.951917 414.230149,26.5724282 412.253589,25.8107686 C410.277699,25.0497795 408.553908,24.0346804 407.084897,22.7614484 L409.212985,18.497898 C410.556617,19.7195034 412.064515,20.6796236 413.73668,21.377588 C415.408844,22.076223 416.967699,22.42487 418.411902,22.42487 C419.830627,22.42487 420.946297,22.1580209 421.756231,21.6203 C422.568176,21.0852609 422.972472,20.3551137 422.972472,19.4318696 C422.972472,18.68429 422.725738,18.0667826 422.231598,17.5793473 C421.738128,17.0932529 421.110563,16.7003546 420.349574,16.4013227 C419.589926,16.1022909 418.55002,15.7663829 417.233877,15.3915874 C415.433652,14.8679464 413.964641,14.3570445 412.824163,13.8582111 C411.683685,13.3587073 410.708815,12.6050934 409.89821,11.5940171 C409.086936,10.5842818 408.681969,9.25607084 408.681969,7.61005476 C408.681969,6.08874703 409.09297,4.76187704 409.916984,3.62609242 C410.740997,2.49164876 411.906283,1.61265606 413.414852,0.988443848 C414.922079,0.364902115 416.665314,0.0538017241 418.641204,0.0538017241 C420.364325,0.0538017241 422.067331,0.303218417 423.753576,0.801381328 C425.438479,1.30021471 426.939673,1.9733716 428.257827,2.82219292 L426.204832,7.19838312 C424.836393,6.37571032 423.436441,5.73942957 422.005648,5.29155228" id="Shape"></path>
                <rect id="Rectangle-path" x="436.631389" y="0.464132413" width="5.09359843" height="26.1880823"></rect>
                <path d="M463.944528,5.29155228 C462.512394,4.84166357 461.25056,4.61705445 460.162379,4.61705445 C458.946137,4.61705445 457.981994,4.84166357 457.273302,5.29155228 C456.563269,5.74010004 456.209258,6.36431225 456.209258,7.161507 C456.209258,7.88494951 456.456664,8.49038841 456.950133,8.9758123 C457.443603,9.46257714 458.063792,9.86083928 458.812042,10.1726101 C459.559622,10.4850515 460.580755,10.8283347 461.87209,11.2011188 C463.671645,11.7247597 465.14669,12.2484007 466.299907,12.7727121 C467.453124,13.2970236 468.434699,14.0707517 469.245974,15.0925556 C470.056578,16.1150299 470.461545,17.4620141 470.461545,19.1321673 C470.461545,20.7285682 470.024395,22.1198038 469.150096,23.3045331 C468.275796,24.4885919 467.072294,25.3923922 465.538918,26.0159339 C464.005541,26.6401462 462.252249,26.951917 460.275019,26.951917 C458.195876,26.951917 456.16903,26.5724282 454.19314,25.8107686 C452.21658,25.0497795 450.492118,24.0346804 449.023778,22.7614484 L451.152536,18.497898 C452.495497,19.7195034 454.003396,20.6796236 455.67556,21.377588 C457.347725,22.076223 458.906579,22.42487 460.350782,22.42487 C461.769507,22.42487 462.885178,22.1580209 463.695111,21.6203 C464.507057,21.0852609 464.912024,20.3551137 464.912024,19.4318696 C464.912024,18.68429 464.664618,18.0667826 464.170478,17.5793473 C463.677009,17.0932529 463.050114,16.7003546 462.288455,16.4013227 C461.528807,16.1022909 460.489571,15.7663829 459.173428,15.3915874 C457.372532,14.8679464 455.903522,14.3570445 454.763044,13.8582111 C453.622566,13.3587073 452.647695,12.6050934 451.837091,11.5940171 C451.025816,10.5842818 450.620849,9.25607084 450.620849,7.61005476 C450.620849,6.08874703 451.03185,4.76187704 451.856535,3.62609242 C452.680548,2.49164876 453.844493,1.61265606 455.353062,0.988443848 C456.86096,0.364902115 458.604195,0.0538017241 460.580755,0.0538017241 C462.303205,0.0538017241 464.006212,0.303218417 465.691786,0.801381328 C467.37736,1.30021471 468.878553,1.9733716 470.196707,2.82219292 L468.143713,7.19838312 C466.776614,6.37571032 465.375992,5.73942957 463.944528,5.29155228" id="Shape"></path>
            </g>
            <path d="M166.122245,115.223807 L135.660555,90.4899854 C137.158396,87.9649766 138.47588,85.3212937 139.593562,82.5743577 C140.756836,79.7161229 141.704887,76.7472597 142.418273,73.6892233 L142.418273,73.6892233 C143.025723,71.083087 143.462873,68.4105738 143.716312,65.685093 L143.716312,65.685093 C143.887283,63.8426277 143.975116,61.9753549 143.975116,60.0886383 C143.975116,59.4892337 143.966399,58.8918405 143.948297,58.2964587 L143.948297,58.2964587 C143.879238,55.9578419 143.676084,53.6547604 143.34554,51.3905664 L143.34554,51.3905664 C143.023041,49.1847037 142.580528,47.01974 142.024033,44.8990276 L142.024033,44.8990276 C141.476926,42.8138504 140.818519,40.7695722 140.05753,38.7802729 L140.05753,38.7802729 C139.301234,36.8030422 138.443697,34.8774381 137.489611,33.0081538 L137.489611,33.0081538 C136.534855,31.1368581 135.48355,29.3212119 134.343742,27.5706017 C133.191866,25.8012182 131.949476,24.0982118 130.621265,22.4649347 C129.268247,20.8014863 127.826055,19.2104492 126.304747,17.7025509 L126.304747,17.7025509 C124.735836,16.1477194 123.084456,14.6827316 121.351278,13.3082579 C119.545019,11.8761233 117.651597,10.5438896 115.684424,9.32563651 C113.595894,8.0316198 111.422214,6.86365238 109.172771,5.83045044 C106.728219,4.70807532 104.193824,3.74594372 101.584335,2.95746514 C98.632904,2.06573342 95.5876067,1.39659939 92.4625228,0.969506823 C89.7947028,0.604768433 87.0685515,0.415694488 84.3008308,0.415694488 C83.0819073,0.415694488 81.8696885,0.452570612 80.6688678,0.524311435 L80.6688678,0.524311435 C71.2104773,1.09220374 62.3461276,3.86327684 54.5820273,8.33132212 L54.4318409,8.41781339 C46.4350858,13.0507955 39.6143438,19.484003 34.5234273,27.1663053 L34.5234273,27.1663053 C32.3577931,30.4348708 30.5046002,33.9280455 29.0081001,37.6049303 C27.8454964,40.4624946 26.8967743,43.4326988 26.1840594,46.4900647 C25.5759386,49.0968715 25.1394594,51.7680438 24.8860199,54.4935246 C24.7150488,56.3359898 24.6272165,58.2032627 24.6272165,60.0899792 C24.6272165,60.6893839 24.6359327,61.2874476 24.6540355,61.8828293 L24.6540355,61.8828293 C24.7230945,64.2221166 24.9262484,66.5251981 25.2567925,68.7893921 C25.5786205,70.9952548 26.021134,73.1602185 26.5776283,75.2802604 L26.5776283,75.2802604 C27.1247358,77.3654376 27.7838127,79.4103863 28.5441314,81.3990151 L28.5441314,81.3990151 C29.2997567,83.3762458 30.1579647,85.30185 31.1113801,87.1711342 C31.7221828,88.3679321 32.385953,89.5325471 33.0738604,90.6817412 L2.49818978,115.331754 C-0.261485243,117.55639 -0.811945202,121.546387 1.24104919,124.435463 C2.40499376,126.072093 30.3577662,164.523162 84.6548416,164.523162 C139.01226,164.523162 166.283159,125.879666 167.416932,124.234991 C169.401538,121.35396 168.838339,117.430341 166.122245,115.223807 Z M52.1589307,53.2551573 L52.1589307,53.2551573 C52.860918,49.9503861 54.0610682,46.8273136 55.6775834,43.9690788 C61.3216418,33.9863768 72.0371729,27.2333528 84.3001603,27.2333528 C84.4208458,27.2333528 84.5415313,27.2340233 84.6622168,27.2353642 C88.0735935,27.2722403 91.3622733,27.8320869 94.451822,28.8377994 C96.9198404,29.6410284 99.2577867,30.7285389 101.432137,32.0621136 C103.373833,33.2535476 105.184786,34.6421013 106.833484,36.1976033 L106.833484,36.1976033 C108.387645,37.6639321 109.798324,39.2791063 111.044066,41.0210003 C112.258967,42.7206544 113.316306,44.5389825 114.193958,46.4572115 L114.193958,46.4572115 C115.074962,48.3828156 115.776279,50.40765 116.274442,52.5095891 L116.274442,52.5095891 C116.790037,54.6852804 117.088398,56.9434402 117.146059,59.2606017 L117.156787,59.2545674 L117.146059,59.2606017 C117.152764,59.5354964 117.156116,59.8103912 117.156116,60.0866269 C117.156116,62.4118341 116.919439,64.6954719 116.45547,66.9134031 L116.45547,66.9134031 C115.998206,69.0944582 115.315663,71.2111478 114.424601,73.2440279 L88.8801749,52.5028844 C86.4228841,50.5082213 82.9082543,50.502187 80.4455997,52.4874634 L54.3312696,73.5403778 C53.4871416,71.6670708 52.8099619,69.7032495 52.3265494,67.6643351 L52.3265494,67.6643351 C51.8109542,65.4886438 51.5125928,63.2304841 51.454932,60.9133225 C51.4482272,60.6384278 51.4448748,60.3621921 51.4448748,60.0859564 C51.4442044,57.7453282 51.6902687,55.4603495 52.1589307,53.2551573 Z M138.207019,134.005153 C122.381128,145.357635 104.362783,151.113663 84.6528302,151.113663 C64.9194105,151.113663 46.7663004,145.36501 30.6983675,134.027278 C24.1887259,129.434525 19.3465556,124.794838 16.2482907,121.469952 L41.9992233,100.710036 C44.579211,98.9339473 51.4589548,95.1967197 63.7199308,95.1967197 C79.8019437,95.1967197 87.8429501,106.85628 107.140561,106.85628 C118.014995,106.85628 124.79819,104.303111 128.653421,102.074452 L152.435839,121.385473 C149.405963,124.720415 144.646932,129.38625 138.207019,134.005153 Z" id="Shape"></path>
        </g>
    </g>
</svg>